<svg version="1.2" xmlns="http://www.w3.org/2000/svg" viewBox="0 0 256 256" width="256" height="256">
	<style>
		.s0 { fill: #ccff00 } 
	</style>
	<path class="s0" d="m253.12 66.34c-3.85-3.85-10.08-3.85-13.93 0-2.63 2.63-5.77 4.7-9.18 6.33l-46.67-46.67c1.62-3.41 3.69-6.55 6.33-9.19 3.84-3.84 3.84-10.08 0-13.92-3.85-3.85-10.08-3.85-13.93 0-17.33 17.33-19.41 45.6-16.51 69.91-61.01-7.22-94.22 20.58-86.43 86.43-24.29-2.89-52.57-0.83-69.91 16.51-3.84 3.85-3.84 10.08 0 13.93 3.84 3.84 10.08 3.84 13.92 0 2.64-2.64 5.78-4.71 9.19-6.33l46.67 46.66c-1.64 3.46-3.72 6.58-6.33 9.19-3.84 3.85-3.84 10.08 0 13.93 3.85 3.84 10.08 3.84 13.93 0 17.33-17.34 19.4-45.6 16.51-69.91 61.01 7.21 94.22-20.58 86.43-86.43 24.26 2.89 52.57 0.82 69.91-16.52 3.84-3.84 3.84-10.08 0-13.92zm-175.18 141.08l-29.35-29.34c9.19-0.62 18.96 0.09 27.86 1.55 1.22 7.29 2.19 17.51 1.49 27.79zm15.25-44.61c-1.46-8.94-2.15-18.71-1.54-27.79l29.34 29.33c-9.16 0.62-18.9-0.08-27.8-1.54zm50.39-3.71l-46.67-46.67c3.36-7.07 8.08-11.99 15.52-15.52l46.67 46.67c-3.37 7.07-8.09 11.98-15.52 15.52zm20.78-38.11l-29.34-29.34c9.16-0.61 18.9 0.09 27.79 1.54 1.47 8.94 2.16 18.71 1.55 27.8zm15.26-44.6c-1.46-8.95-2.15-18.71-1.54-27.8l29.34 29.34c-9.16 0.61-18.9-0.09-27.8-1.54z"/>
</svg>