<svg version="1.2" xmlns="http://www.w3.org/2000/svg" viewBox="0 0 1275 637" width="1275" height="637">
	<style>
		.s0 { fill: #f4a261 } 
	</style>
	<path id="rectB" fill-rule="evenodd" class="s0" d="m0 0h637.6v637.44h-637.6zm584.9 177.68c-56.43-98.8-153.08-143.41-247.9-144.03-146.2-0.94-284.31 117.99-284.3 285.06-0.02 167.94 137.53 284.84 283.74 285.08 92.21 0.16 190.9-44.64 248.46-143.86l-158.35-90.83c-19.6 35.02-58.18 52.68-89.89 52.15-53.05-0.9-101.55-43.73-101.52-102.79-0.03-57.4 48.31-102.4 104.37-101.93 30.78 0.26 63.81 14.51 87.02 51.75l158.36-90.59z"/>
	<path id="bigN" class="s0" d="m683.27 45.56h182.08l182.27 227.87v-227.87h181.94l0.01 546.32h-181.94l-182.27-227.48v227.48h-182.13z"/>
</svg>