<svg version="1.2" xmlns="http://www.w3.org/2000/svg" viewBox="0 0 800 800" width="800" height="800">
	<style>
		.s0 { fill: #f4a261 } 
	</style>
	<g>
		<path class="s0" d="m452.15 63.6c-63.92 0-119.14 37.16-145.31 91.04-26.18-53.88-81.42-91.04-145.34-91.04-89.21 0-161.5 72.29-161.5 161.5 0 89.18 72.29 161.45 161.5 161.45h290.65c89.21 0 161.5-72.27 161.5-161.45 0-89.21-72.29-161.5-161.5-161.5zm-290.65 222.56c-33.74 0-61.09-27.37-61.09-61.06 0-33.74 27.35-61.09 61.09-61.09 33.69 0 61.03 27.35 61.03 61.09 0 33.69-27.34 61.06-61.03 61.06zm290.65 0c-33.72 0-61.04-27.37-61.04-61.06 0-33.74 27.32-61.09 61.04-61.09 33.74 0 61.08 27.35 61.08 61.09 0 33.69-27.34 61.06-61.08 61.06z"/>
		<path id="Shape 2" fill-rule="evenodd" class="s0" d="m801 514v131h-217v-131z"/>
		<path id="Shape 3" fill-rule="evenodd" class="s0" d="m846.65 452.76l-119.17 212.68-143.04-150.94z"/>
		<path id="Shape 3 copy" fill-rule="evenodd" class="s0" d="m846.21 706.68l-119.17-212.68-143.04 150.94z"/>
		<path id="Shape 1" fill-rule="evenodd" class="s0" d="m550 423v314h-497v-314z"/>
	</g>
</svg>